# xmcd CD database file
#
# Track frame offsets:
#	150
#	15655
#	26197
#	45770
#	59132
#	74360
#	93645
#	106260
#	121892
#	135667
#	151960
#	164107
#
# Disc length: 2407 seconds
#
# Revision: 1
# Processed by: cddbd v1.4PL0 Copyright (c) Steve Scherf et al.
# Submitted via: CDex 1.50Beta7
#
DISCID=a409650c
DTITLE=Amanda Stott - Amanda Stott
DYEAR=2000
DGENRE=Country
TTITLE0=Somebody To Love
TTITLE1=To Keep From Missing You
TTITLE2=You're Not Alone
TTITLE3=Every Time The Phone Rings
TTITLE4=Black Is Black
TTITLE5=All Along
TTITLE6=Magic
TTITLE7=Nothin' But Love
TTITLE8=Reachin' For A Star
TTITLE9=You Can Always Reach Me
TTITLE10=He Loves Me Like That
TTITLE11=I Just Believe That I Can
EXTD=YEAR: 2000
EXTT0=
EXTT1=
EXTT2=
EXTT3=
EXTT4=
EXTT5=
EXTT6=
EXTT7=
EXTT8=
EXTT9=
EXTT10=
EXTT11=
PLAYORDER=
